<svg data-v-423bf9ae="" xmlns="http://www.w3.org/2000/svg" viewBox="0 0 353.5559772296015 163" class="iconAbove"><!----><!----><!----><g data-v-423bf9ae="" id="c6411cf6-8dd7-4171-b248-bbd3523ddbc0" fill="black" transform="matrix(5.829222202301025,0,0,5.829222202301025,-6.580655097961426,77.77039337158203)"><path d="M8.31 11.59L8.31 11.59L8.31 11.59Q8.31 12.02 8.28 12.34L8.28 12.34L8.28 12.34Q8.26 12.67 8.20 12.95L8.20 12.95L8.20 12.95Q8.15 13.24 8.09 13.44L8.09 13.44L8.09 13.44Q8.03 13.64 7.89 13.81L7.89 13.81L7.89 13.81Q7.76 13.99 7.64 14.09L7.64 14.09L7.64 14.09Q7.51 14.20 7.28 14.28L7.28 14.28L7.28 14.28Q7.05 14.37 6.84 14.41L6.84 14.41L6.84 14.41Q6.63 14.45 6.28 14.48L6.28 14.48L6.28 14.48Q5.93 14.51 5.60 14.51L5.60 14.51L5.60 14.51Q5.28 14.52 4.79 14.52L4.79 14.52L1.13 14.52L1.13 4.33L5.00 4.33L5.00 4.33Q5.78 4.33 6.29 4.41L6.29 4.41L6.29 4.41Q6.79 4.49 7.19 4.70L7.19 4.70L7.19 4.70Q7.58 4.90 7.76 5.28L7.76 5.28L7.76 5.28Q7.94 5.65 7.94 6.23L7.94 6.23L7.95 6.97L7.95 6.97Q7.95 7.44 7.92 7.73L7.92 7.73L7.92 7.73Q7.88 8.03 7.80 8.26L7.80 8.26L7.80 8.26Q7.71 8.50 7.54 8.64L7.54 8.64L7.54 8.64Q7.37 8.78 7.13 8.87L7.13 8.87L7.13 8.87Q6.88 8.96 6.50 9.03L6.50 9.03L6.50 9.03Q6.97 9.08 7.30 9.24L7.30 9.24L7.30 9.24Q7.64 9.39 7.83 9.61L7.83 9.61L7.83 9.61Q8.03 9.83 8.13 10.17L8.13 10.17L8.13 10.17Q8.24 10.50 8.28 10.82L8.28 10.82L8.28 10.82Q8.31 11.14 8.31 11.59ZM6.60 7.76L6.60 6.68L6.60 6.68Q6.60 6.67 6.60 6.64L6.60 6.64L6.60 6.64Q6.60 6.35 6.60 6.23L6.60 6.23L6.60 6.23Q6.60 6.11 6.56 5.94L6.56 5.94L6.56 5.94Q6.52 5.76 6.48 5.71L6.48 5.71L6.48 5.71Q6.45 5.65 6.31 5.56L6.31 5.56L6.31 5.56Q6.18 5.47 6.05 5.45L6.05 5.45L6.05 5.45Q5.92 5.43 5.64 5.40L5.64 5.40L5.64 5.40Q5.37 5.37 5.09 5.37L5.09 5.37L5.09 5.37Q4.82 5.37 4.35 5.37L4.35 5.37L2.51 5.37L2.51 8.64L3.88 8.64L3.88 8.64Q4.78 8.64 5.33 8.59L5.33 8.59L5.33 8.59Q5.89 8.54 6.16 8.41L6.16 8.41L6.16 8.41Q6.43 8.29 6.51 8.14L6.51 8.14L6.51 8.14Q6.60 8.00 6.60 7.76L6.60 7.76ZM6.97 12.17L6.96 11.26L6.96 11.26Q6.95 10.45 6.90 10.23L6.90 10.23L6.90 10.23Q6.80 9.86 6.43 9.72L6.43 9.72L6.43 9.72Q5.96 9.54 4.35 9.54L4.35 9.54L4.35 9.54Q4.24 9.54 4.11 9.54L4.11 9.54L2.51 9.54L2.51 13.49L5.12 13.49L5.12 13.49Q5.91 13.49 6.32 13.35L6.32 13.35L6.32 13.35Q6.72 13.22 6.85 12.95L6.85 12.95L6.85 12.95Q6.98 12.69 6.97 12.17L6.97 12.17ZM13.42 6.85L13.42 6.85L13.36 7.99L13.36 7.99Q13.10 7.96 12.87 7.96L12.87 7.96L12.87 7.96Q12.39 7.96 12.09 8.05L12.09 8.05L12.09 8.05Q11.79 8.15 11.63 8.38L11.63 8.38L11.63 8.38Q11.48 8.61 11.43 8.91L11.43 8.91L11.43 8.91Q11.38 9.21 11.38 9.71L11.38 9.71L11.38 9.71Q11.38 9.99 11.40 10.53L11.40 10.53L11.40 10.53Q11.42 11.07 11.42 11.30L11.42 11.30L11.42 14.52L10.08 14.52L10.08 7.02L11.30 7.02L11.44 7.86L11.44 7.86Q11.65 7.37 12.08 7.10L12.08 7.10L12.08 7.10Q12.51 6.83 13.11 6.83L13.11 6.83L13.11 6.83Q13.26 6.83 13.42 6.85ZM17.81 13.68L17.81 13.68L17.81 13.68Q18.79 13.66 19.16 13.54L19.16 13.54L19.16 13.54Q19.54 13.41 19.54 13.05L19.54 13.05L19.54 13.05Q19.62 12.07 19.62 10.79L19.62 10.79L19.62 10.79Q19.62 10.36 19.58 9.57L19.58 9.57L19.58 9.57Q19.55 8.78 19.55 8.40L19.55 8.40L19.55 8.40Q19.55 8.29 19.51 8.19L19.51 8.19L19.51 8.19Q19.48 8.09 19.39 8.03L19.39 8.03L19.39 8.03Q19.30 7.96 19.22 7.92L19.22 7.92L19.22 7.92Q19.13 7.87 18.98 7.84L18.98 7.84L18.98 7.84Q18.83 7.81 18.72 7.79L18.72 7.79L18.72 7.79Q18.61 7.77 18.42 7.77L18.42 7.77L18.42 7.77Q18.22 7.76 18.12 7.76L18.12 7.76L18.12 7.76Q18.01 7.76 17.81 7.76L17.81 7.76L17.81 7.76Q17.60 7.76 17.50 7.76L17.50 7.76L17.50 7.76Q17.39 7.76 17.20 7.77L17.20 7.77L17.20 7.77Q17.00 7.77 16.90 7.79L16.90 7.79L16.90 7.79Q16.79 7.81 16.64 7.84L16.64 7.84L16.64 7.84Q16.48 7.87 16.40 7.92L16.40 7.92L16.40 7.92Q16.31 7.96 16.23 8.03L16.23 8.03L16.23 8.03Q16.14 8.09 16.10 8.19L16.10 8.19L16.10 8.19Q16.06 8.29 16.06 8.40L16.06 8.40L16.06 8.40Q16.06 8.78 16.03 9.57L16.03 9.57L16.03 9.57Q16.00 10.36 16.00 10.79L16.00 10.79L16.00 10.79Q16.00 12.07 16.07 13.05L16.07 13.05L16.07 13.05Q16.07 13.41 16.47 13.55L16.47 13.55L16.47 13.55Q16.87 13.68 17.81 13.68ZM17.80 14.62L17.80 14.62L17.80 14.62Q17.04 14.62 16.54 14.56L16.54 14.56L16.54 14.56Q16.03 14.50 15.66 14.29L15.66 14.29L15.66 14.29Q15.30 14.08 15.11 13.85L15.11 13.85L15.11 13.85Q14.92 13.61 14.81 13.10L14.81 13.10L14.81 13.10Q14.70 12.59 14.67 12.09L14.67 12.09L14.67 12.09Q14.65 11.59 14.65 10.71L14.65 10.71L14.65 10.71Q14.65 10.04 14.67 9.60L14.67 9.60L14.67 9.60Q14.68 9.15 14.75 8.73L14.75 8.73L14.75 8.73Q14.81 8.30 14.90 8.04L14.90 8.04L14.90 8.04Q14.99 7.77 15.17 7.54L15.17 7.54L15.17 7.54Q15.34 7.30 15.56 7.18L15.56 7.18L15.56 7.18Q15.78 7.05 16.12 6.96L16.12 6.96L16.12 6.96Q16.45 6.87 16.85 6.84L16.85 6.84L16.85 6.84Q17.25 6.81 17.81 6.81L17.81 6.81L17.81 6.81Q18.36 6.81 18.76 6.84L18.76 6.84L18.76 6.84Q19.16 6.87 19.50 6.96L19.50 6.96L19.50 6.96Q19.84 7.05 20.06 7.18L20.06 7.18L20.06 7.18Q20.28 7.30 20.45 7.54L20.45 7.54L20.45 7.54Q20.62 7.77 20.72 8.04L20.72 8.04L20.72 8.04Q20.81 8.30 20.87 8.73L20.87 8.73L20.87 8.73Q20.93 9.15 20.95 9.60L20.95 9.60L20.95 9.60Q20.97 10.04 20.97 10.71L20.97 10.71L20.97 10.71Q20.97 11.59 20.94 12.09L20.94 12.09L20.94 12.09Q20.92 12.59 20.81 13.10L20.81 13.10L20.81 13.10Q20.70 13.61 20.50 13.85L20.50 13.85L20.50 13.85Q20.31 14.09 19.94 14.29L19.94 14.29L19.94 14.29Q19.58 14.50 19.07 14.56L19.07 14.56L19.07 14.56Q18.57 14.62 17.80 14.62ZM30.51 7.02L31.86 7.02L29.90 14.52L28.66 14.52L27.02 8.82L25.47 14.52L24.09 14.52L22.12 7.02L23.41 7.02L24.76 12.93L26.40 7.02L27.61 7.02L29.15 12.93L30.51 7.02ZM38.76 12.44L38.76 12.44L38.76 12.44Q38.76 13.10 38.62 13.52L38.62 13.52L38.62 13.52Q38.47 13.94 38.14 14.18L38.14 14.18L38.14 14.18Q37.81 14.43 37.33 14.53L37.33 14.53L37.33 14.53Q36.86 14.62 36.13 14.62L36.13 14.62L36.13 14.62Q35.71 14.62 35.45 14.62L35.45 14.62L35.45 14.62Q35.20 14.61 34.86 14.58L34.86 14.58L34.86 14.58Q34.53 14.55 34.33 14.50L34.33 14.50L34.33 14.50Q34.13 14.44 33.90 14.34L33.90 14.34L33.90 14.34Q33.67 14.24 33.54 14.09L33.54 14.09L33.54 14.09Q33.41 13.93 33.30 13.72L33.30 13.72L33.30 13.72Q33.18 13.51 33.13 13.22L33.13 13.22L33.13 13.22Q33.09 12.93 33.09 12.56L33.09 12.56L34.15 12.28L34.15 12.28Q34.21 13.06 34.29 13.27L34.29 13.27L34.29 13.27Q34.41 13.55 34.80 13.62L34.80 13.62L34.80 13.62Q35.10 13.69 36.04 13.69L36.04 13.69L36.04 13.69Q36.61 13.69 36.88 13.63L36.88 13.63L36.88 13.63Q37.16 13.58 37.26 13.44L37.26 13.44L37.26 13.44Q37.53 13.21 37.53 11.90L37.53 11.90L37.53 11.90Q37.53 11.70 37.45 11.56L37.45 11.56L37.45 11.56Q37.37 11.42 37.25 11.35L37.25 11.35L37.25 11.35Q37.13 11.28 36.92 11.23L36.92 11.23L36.92 11.23Q36.72 11.18 36.55 11.16L36.55 11.16L36.55 11.16Q36.38 11.14 36.11 11.12L36.11 11.12L36.11 11.12Q35.83 11.09 35.67 11.07L35.67 11.07L35.67 11.07Q35.17 11.01 34.86 10.96L34.86 10.96L34.86 10.96Q34.54 10.91 34.22 10.81L34.22 10.81L34.22 10.81Q33.90 10.71 33.72 10.55L33.72 10.55L33.72 10.55Q33.54 10.40 33.39 10.17L33.39 10.17L33.39 10.17Q33.24 9.93 33.17 9.59L33.17 9.59L33.17 9.59Q33.11 9.26 33.11 8.79L33.11 8.79L33.11 8.79Q33.11 8.30 33.22 7.96L33.22 7.96L33.22 7.96Q33.32 7.62 33.52 7.39L33.52 7.39L33.52 7.39Q33.71 7.16 34.06 7.04L34.06 7.04L34.06 7.04Q34.41 6.91 34.84 6.86L34.84 6.86L34.84 6.86Q35.27 6.81 35.89 6.81L35.89 6.81L35.89 6.81Q36.28 6.81 36.53 6.82L36.53 6.82L36.53 6.82Q36.78 6.83 37.07 6.87L37.07 6.87L37.07 6.87Q37.37 6.90 37.56 6.97L37.56 6.97L37.56 6.97Q37.74 7.04 37.93 7.16L37.93 7.16L37.93 7.16Q38.12 7.29 38.22 7.47L38.22 7.47L38.22 7.47Q38.32 7.65 38.39 7.91L38.39 7.91L38.39 7.91Q38.45 8.17 38.45 8.50L38.45 8.50L37.54 8.78L37.54 8.78Q37.51 8.52 37.48 8.36L37.48 8.36L37.48 8.36Q37.46 8.21 37.38 8.08L37.38 8.08L37.38 8.08Q37.30 7.95 37.21 7.90L37.21 7.90L37.21 7.90Q37.12 7.84 36.90 7.80L36.90 7.80L36.90 7.80Q36.69 7.76 36.47 7.75L36.47 7.75L36.47 7.75Q36.25 7.75 35.84 7.75L35.84 7.75L35.84 7.75Q34.97 7.75 34.65 7.92L34.65 7.92L34.65 7.92Q34.34 8.09 34.34 8.49L34.34 8.49L34.34 9.19L34.34 9.19Q34.34 9.64 34.61 9.76L34.61 9.76L34.61 9.76Q34.88 9.88 36.06 10.03L36.06 10.03L36.06 10.03Q36.18 10.05 36.24 10.06L36.24 10.06L36.24 10.06Q36.72 10.11 36.99 10.16L36.99 10.16L36.99 10.16Q37.27 10.21 37.58 10.28L37.58 10.28L37.58 10.28Q37.88 10.36 38.05 10.47L38.05 10.47L38.05 10.47Q38.21 10.58 38.37 10.74L38.37 10.74L38.37 10.74Q38.53 10.90 38.60 11.14L38.60 11.14L38.60 11.14Q38.67 11.38 38.72 11.70L38.72 11.70L38.72 11.70Q38.76 12.01 38.76 12.44ZM46.33 10.66L46.33 10.66L46.33 10.66Q45.51 10.75 45.31 10.76L45.31 10.76L41.58 10.76L41.58 10.76Q41.59 11.75 41.64 12.93L41.64 12.93L41.64 12.93Q41.67 13.39 42.03 13.54L42.03 13.54L42.03 13.54Q42.39 13.69 43.43 13.69L43.43 13.69L43.43 13.69Q43.82 13.69 44.10 13.65L44.10 13.65L44.10 13.65Q44.38 13.62 44.55 13.55L44.55 13.55L44.55 13.55Q44.73 13.47 44.83 13.40L44.83 13.40L44.83 13.40Q44.93 13.32 44.97 13.17L44.97 13.17L44.97 13.17Q45.02 13.02 45.04 12.91L45.04 12.91L45.04 12.91Q45.05 12.80 45.06 12.59L45.06 12.59L45.06 12.59Q45.08 12.37 45.10 12.24L45.10 12.24L46.14 12.43L46.14 12.43Q46.13 12.91 46.07 13.24L46.07 13.24L46.07 13.24Q46.02 13.57 45.89 13.82L45.89 13.82L45.89 13.82Q45.76 14.08 45.58 14.22L45.58 14.22L45.58 14.22Q45.40 14.37 45.10 14.46L45.10 14.46L45.10 14.46Q44.80 14.56 44.44 14.59L44.44 14.59L44.44 14.59Q44.08 14.62 43.54 14.62L43.54 14.62L43.54 14.62Q42.86 14.62 42.36 14.54L42.36 14.54L42.36 14.54Q41.85 14.46 41.49 14.35L41.49 14.35L41.49 14.35Q41.13 14.23 40.90 13.97L40.90 13.97L40.90 13.97Q40.67 13.71 40.53 13.47L40.53 13.47L40.53 13.47Q40.40 13.23 40.34 12.76L40.34 12.76L40.34 12.76Q40.28 12.30 40.26 11.92L40.26 11.92L40.26 11.92Q40.24 11.54 40.24 10.87L40.24 10.87L40.24 10.87Q40.24 9.93 40.27 9.40L40.27 9.40L40.27 9.40Q40.29 8.87 40.40 8.34L40.40 8.34L40.40 8.34Q40.51 7.81 40.69 7.57L40.69 7.57L40.69 7.57Q40.88 7.33 41.24 7.13L41.24 7.13L41.24 7.13Q41.60 6.92 42.10 6.87L42.10 6.87L42.10 6.87Q42.59 6.81 43.35 6.81L43.35 6.81L43.35 6.81Q43.87 6.81 44.26 6.84L44.26 6.84L44.26 6.84Q44.64 6.87 44.96 6.97L44.96 6.97L44.96 6.97Q45.28 7.06 45.49 7.18L45.49 7.18L45.49 7.18Q45.70 7.31 45.86 7.55L45.86 7.55L45.86 7.55Q46.02 7.79 46.10 8.04L46.10 8.04L46.10 8.04Q46.19 8.30 46.25 8.72L46.25 8.72L46.25 8.72Q46.30 9.15 46.31 9.58L46.31 9.58L46.31 9.58Q46.33 10.01 46.33 10.66ZM41.59 10.04L41.59 10.04L44.98 10.04L44.98 10.04Q44.97 9.17 44.91 8.44L44.91 8.44L44.91 8.44Q44.88 8.03 44.55 7.89L44.55 7.89L44.55 7.89Q44.22 7.75 43.34 7.75L43.34 7.75L43.34 7.75Q42.36 7.75 42.10 7.85L42.10 7.85L42.10 7.85Q41.99 7.89 41.90 7.97L41.90 7.97L41.90 7.97Q41.82 8.06 41.76 8.22L41.76 8.22L41.76 8.22Q41.71 8.37 41.68 8.51L41.68 8.51L41.68 8.51Q41.64 8.65 41.63 8.89L41.63 8.89L41.63 8.89Q41.61 9.13 41.60 9.27L41.60 9.27L41.60 9.27Q41.60 9.40 41.59 9.67L41.59 9.67L41.59 9.67Q41.59 9.95 41.59 10.04ZM54.03 10.66L54.03 10.66L54.03 10.66Q53.21 10.75 53.01 10.76L53.01 10.76L49.29 10.76L49.29 10.76Q49.29 11.75 49.34 12.93L49.34 12.93L49.34 12.93Q49.38 13.39 49.73 13.54L49.73 13.54L49.73 13.54Q50.09 13.69 51.13 13.69L51.13 13.69L51.13 13.69Q51.52 13.69 51.80 13.65L51.80 13.65L51.80 13.65Q52.08 13.62 52.26 13.55L52.26 13.55L52.26 13.55Q52.43 13.47 52.53 13.40L52.53 13.40L52.53 13.40Q52.63 13.32 52.68 13.17L52.68 13.17L52.68 13.17Q52.73 13.02 52.74 12.91L52.74 12.91L52.74 12.91Q52.75 12.80 52.77 12.59L52.77 12.59L52.77 12.59Q52.78 12.37 52.80 12.24L52.80 12.24L53.85 12.43L53.85 12.43Q53.83 12.91 53.78 13.24L53.78 13.24L53.78 13.24Q53.72 13.57 53.59 13.82L53.59 13.82L53.59 13.82Q53.46 14.08 53.29 14.22L53.29 14.22L53.29 14.22Q53.11 14.37 52.81 14.46L52.81 14.46L52.81 14.46Q52.51 14.56 52.14 14.59L52.14 14.59L52.14 14.59Q51.78 14.62 51.25 14.62L51.25 14.62L51.25 14.62Q50.57 14.62 50.06 14.54L50.06 14.54L50.06 14.54Q49.55 14.46 49.19 14.35L49.19 14.35L49.19 14.35Q48.84 14.23 48.60 13.97L48.60 13.97L48.60 13.97Q48.37 13.71 48.24 13.47L48.24 13.47L48.24 13.47Q48.10 13.23 48.04 12.76L48.04 12.76L48.04 12.76Q47.98 12.30 47.96 11.92L47.96 11.92L47.96 11.92Q47.95 11.54 47.95 10.87L47.95 10.87L47.95 10.87Q47.95 9.93 47.97 9.40L47.97 9.40L47.97 9.40Q48.00 8.87 48.10 8.34L48.10 8.34L48.10 8.34Q48.21 7.81 48.40 7.57L48.40 7.57L48.40 7.57Q48.58 7.33 48.95 7.13L48.95 7.13L48.95 7.13Q49.31 6.92 49.80 6.87L49.80 6.87L49.80 6.87Q50.29 6.81 51.05 6.81L51.05 6.81L51.05 6.81Q51.58 6.81 51.96 6.84L51.96 6.84L51.96 6.84Q52.34 6.87 52.66 6.97L52.66 6.97L52.66 6.97Q52.99 7.06 53.19 7.18L53.19 7.18L53.19 7.18Q53.40 7.31 53.56 7.55L53.56 7.55L53.56 7.55Q53.72 7.79 53.81 8.04L53.81 8.04L53.81 8.04Q53.89 8.30 53.95 8.72L53.95 8.72L53.95 8.72Q54.00 9.15 54.02 9.58L54.02 9.58L54.02 9.58Q54.03 10.01 54.03 10.66ZM49.29 10.04L49.29 10.04L52.68 10.04L52.68 10.04Q52.67 9.17 52.62 8.44L52.62 8.44L52.62 8.44Q52.59 8.03 52.26 7.89L52.26 7.89L52.26 7.89Q51.93 7.75 51.04 7.75L51.04 7.75L51.04 7.75Q50.07 7.75 49.81 7.85L49.81 7.85L49.81 7.85Q49.69 7.89 49.60 7.97L49.60 7.97L49.60 7.97Q49.52 8.06 49.46 8.22L49.46 8.22L49.46 8.22Q49.41 8.37 49.38 8.51L49.38 8.51L49.38 8.51Q49.35 8.65 49.33 8.89L49.33 8.89L49.33 8.89Q49.31 9.13 49.31 9.27L49.31 9.27L49.31 9.27Q49.30 9.40 49.30 9.67L49.30 9.67L49.30 9.67Q49.29 9.95 49.29 10.04ZM61.78 10.36L61.78 14.52L60.44 14.52L60.44 9.98L60.44 9.98Q60.44 9.54 60.43 9.28L60.43 9.28L60.43 9.28Q60.43 9.02 60.41 8.75L60.41 8.75L60.41 8.75Q60.38 8.48 60.35 8.35L60.35 8.35L60.35 8.35Q60.33 8.22 60.26 8.08L60.26 8.08L60.26 8.08Q60.18 7.95 60.11 7.90L60.11 7.90L60.11 7.90Q60.03 7.85 59.89 7.81L59.89 7.81L59.89 7.81Q59.75 7.77 59.60 7.76L59.60 7.76L59.60 7.76Q59.46 7.75 59.22 7.75L59.22 7.75L59.22 7.75Q58.70 7.75 58.33 7.81L58.33 7.81L58.33 7.81Q57.97 7.87 57.74 7.97L57.74 7.97L57.74 7.97Q57.50 8.07 57.38 8.26L57.38 8.26L57.38 8.26Q57.25 8.44 57.20 8.66L57.20 8.66L57.20 8.66Q57.16 8.87 57.16 9.19L57.16 9.19L57.16 9.19Q57.16 9.37 57.18 9.81L57.18 9.81L57.18 9.81Q57.20 10.25 57.20 10.52L57.20 10.52L57.20 14.52L55.85 14.52L55.85 7.02L57.08 7.02L57.21 7.86L57.21 7.86Q57.39 7.30 58.00 7.05L58.00 7.05L58.00 7.05Q58.60 6.81 59.45 6.81L59.45 6.81L59.45 6.81Q59.84 6.81 60.15 6.86L60.15 6.86L60.15 6.86Q60.46 6.90 60.70 7.02L60.70 7.02L60.70 7.02Q60.94 7.13 61.11 7.27L61.11 7.27L61.11 7.27Q61.28 7.42 61.40 7.65L61.40 7.65L61.40 7.65Q61.52 7.89 61.60 8.13L61.60 8.13L61.60 8.13Q61.67 8.38 61.71 8.75L61.71 8.75L61.71 8.75Q61.76 9.12 61.77 9.48L61.77 9.48L61.77 9.48Q61.78 9.85 61.78 10.36L61.78 10.36Z"></path></g><!----><g data-v-423bf9ae="" id="c3688588-26d6-4ebd-abd8-1bb2618ccbd6" transform="matrix(2.0769855976104736,0,0,2.0769855976104736,125.67559051513672,-5.0500593185424805)" stroke="none" fill="black"><path d="M33.362 2.833H1.9v31.46h31.462V2.833zm-3.31 28.152H5.213V6.144h24.839v24.841z"></path><path d="M37.723 16.362c0 .916.745 1.655 1.656 1.655h4.735v24.838h-24.84v-3.81c0-.912-.74-1.656-1.655-1.656-.914 0-1.654.744-1.654 1.656v7.121h31.459v-31.46h-8.045a1.65 1.65 0 0 0-1.656 1.656z"></path></g><!----></svg>